<?xml version="1.0" encoding="UTF-8" ?>
<!DOCTYPE svg PUBLIC "-//W3C//DTD SVG 1.1//EN" "http://www.w3.org/Graphics/SVG/1.1/DTD/svg11.dtd">
<svg width="134pt" height="134pt" viewBox="0 0 134 134" version="1.1" xmlns="http://www.w3.org/2000/svg">
<g id="#ffffffff">
<path fill="#ffffff" opacity="1.00" d=" M 57.11 0.72 C 63.31 0.41 69.52 0.35 75.72 0.76 C 76.34 4.19 77.11 7.59 77.89 10.99 C 83.53 13.42 89.19 15.83 94.86 18.18 C 96.00 18.52 97.37 19.33 98.51 18.53 C 101.31 16.92 103.95 15.04 106.75 13.42 C 110.98 17.71 115.26 21.96 119.52 26.22 C 117.77 29.26 115.59 32.05 114.05 35.20 C 114.54 39.03 116.73 42.39 118.05 45.98 C 119.46 48.92 120.17 52.34 122.30 54.87 C 125.50 56.08 128.93 56.47 132.27 57.14 C 132.62 63.38 132.60 69.63 132.28 75.86 C 128.93 76.53 125.50 76.94 122.28 78.13 C 120.19 80.69 119.45 84.07 118.05 87.02 C 116.73 90.61 114.54 93.97 114.04 97.80 C 115.59 100.95 117.77 103.74 119.52 106.78 C 115.26 111.05 110.98 115.29 106.76 119.58 C 103.71 117.88 100.94 115.72 97.83 114.16 C 94.77 114.33 92.08 116.14 89.25 117.18 C 85.57 118.94 81.46 119.93 78.10 122.29 C 76.77 125.60 76.38 129.18 75.61 132.64 C 69.50 132.63 63.38 132.64 57.27 132.63 C 56.52 129.11 55.76 125.59 55.02 122.07 C 48.42 119.40 42.03 115.91 35.15 114.10 C 32.00 115.64 29.21 117.83 26.18 119.61 C 21.87 115.33 17.58 111.02 13.27 106.74 C 15.11 103.75 17.29 100.97 18.86 97.83 C 18.59 95.03 17.07 92.55 16.08 89.96 C 14.27 86.08 13.07 81.89 10.86 78.20 C 7.64 76.87 4.12 76.55 0.73 75.87 C 0.38 69.62 0.40 63.36 0.72 57.11 C 4.12 56.45 7.64 56.12 10.86 54.79 C 13.07 51.11 14.26 46.92 16.08 43.04 C 17.07 40.45 18.61 37.97 18.85 35.17 C 17.29 32.03 15.11 29.25 13.28 26.26 C 17.58 21.98 21.87 17.67 26.18 13.40 C 29.21 15.17 32.00 17.35 35.15 18.90 C 38.20 18.50 40.90 16.88 43.73 15.78 C 47.39 14.09 51.34 12.96 54.80 10.85 C 56.12 7.63 56.45 4.12 57.11 0.72 M 59.38 32.58 C 44.93 35.47 33.28 48.35 31.94 63.05 C 30.44 76.59 37.91 90.65 50.03 96.91 C 57.82 101.34 67.40 102.20 75.99 99.82 C 84.75 97.14 92.59 91.13 96.86 82.94 C 101.35 75.18 102.21 65.59 99.82 57.00 C 97.14 48.24 91.13 40.41 82.94 36.14 C 75.89 32.05 67.32 31.00 59.38 32.58 Z" />
</g>
</svg>
