<?xml version="1.0" encoding="UTF-8" ?>
<!DOCTYPE svg PUBLIC "-//W3C//DTD SVG 1.1//EN" "http://www.w3.org/Graphics/SVG/1.1/DTD/svg11.dtd">
<svg width="62pt" height="62pt" viewBox="0 0 62 62" version="1.1" xmlns="http://www.w3.org/2000/svg">
<g id="#ffffffff">
<path fill="#ffffff" opacity="1.00" d=" M 24.87 0.67 C 28.59 0.44 32.31 0.44 36.03 0.67 C 36.23 3.24 36.39 5.82 36.60 8.39 C 40.05 10.31 43.40 12.51 47.12 13.90 C 49.83 13.42 52.24 11.95 54.77 10.94 C 56.70 13.92 58.53 16.97 60.19 20.11 C 58.10 21.83 55.29 22.88 53.72 25.12 C 53.31 28.69 53.32 32.32 53.71 35.88 C 55.31 38.11 58.08 39.18 60.19 40.89 C 58.53 44.02 56.70 47.07 54.77 50.06 C 52.24 49.05 49.83 47.58 47.12 47.10 C 43.41 48.48 40.06 50.67 36.62 52.60 C 36.39 55.29 36.18 57.98 35.89 60.66 C 32.27 60.66 28.64 60.66 25.02 60.65 C 24.70 57.99 24.50 55.31 24.29 52.64 C 20.87 50.71 17.56 48.51 13.87 47.17 C 11.11 47.38 8.71 49.11 6.16 50.06 C 4.18 47.10 2.35 44.03 0.69 40.88 C 2.84 39.21 5.53 38.07 7.20 35.88 C 7.57 32.31 7.57 28.69 7.19 25.12 C 5.54 22.92 2.84 21.79 0.69 20.12 C 2.35 16.97 4.18 13.90 6.16 10.93 C 8.71 11.89 11.11 13.63 13.87 13.83 C 17.57 12.48 20.89 10.28 24.31 8.35 C 24.51 5.79 24.66 3.23 24.87 0.67 M 17.17 23.17 C 17.08 28.02 17.04 32.87 17.24 37.72 C 21.55 40.01 25.63 42.74 30.10 44.72 C 34.95 43.15 39.15 40.00 43.67 37.67 C 43.81 32.85 43.77 28.03 43.73 23.21 C 39.26 20.75 35.00 17.63 30.12 16.08 C 25.59 18.02 21.44 20.74 17.17 23.17 Z" />
</g>
</svg>
