<?xml version="1.0" encoding="UTF-8" ?>
<!DOCTYPE svg PUBLIC "-//W3C//DTD SVG 1.1//EN" "http://www.w3.org/Graphics/SVG/1.1/DTD/svg11.dtd">
<svg width="236pt" height="352pt" viewBox="0 0 236 352" version="1.1" xmlns="http://www.w3.org/2000/svg">
<g id="#404040ff">
<path fill="#404040" opacity="1.00" d=" M 93.63 6.60 C 98.70 5.27 102.69 1.22 108.00 0.61 C 115.57 -0.45 122.78 2.94 130.26 3.42 C 137.85 3.75 145.65 3.55 152.95 5.98 C 155.81 6.90 158.27 8.70 160.28 10.89 C 165.74 8.64 172.34 7.91 177.33 11.68 C 188.52 19.65 197.72 30.02 208.34 38.69 C 210.20 40.16 211.83 41.93 212.95 44.04 C 217.12 51.74 220.44 59.87 224.09 67.82 C 226.55 75.09 225.62 83.01 227.59 90.40 C 228.40 93.23 231.29 94.57 233.45 96.23 C 232.21 97.76 230.41 98.46 228.55 98.92 C 229.29 103.61 229.60 108.36 228.89 113.07 C 227.99 119.92 227.95 126.96 225.93 133.62 C 224.95 132.14 224.06 130.60 223.22 129.04 C 222.29 141.70 215.13 152.49 211.27 164.29 C 210.13 167.46 208.84 170.59 207.81 173.81 C 206.72 177.05 207.35 180.65 205.87 183.78 C 204.67 186.48 203.63 189.35 201.68 191.62 C 199.96 193.00 197.64 193.24 195.61 193.94 C 195.73 198.75 196.03 203.72 194.25 208.29 C 190.93 217.17 189.38 226.98 183.85 234.86 C 179.03 239.72 174.65 245.35 172.65 251.97 C 173.03 264.17 173.66 276.39 174.70 288.56 C 174.99 293.66 177.28 298.25 179.32 302.83 C 174.50 308.85 169.81 314.98 164.83 320.87 C 160.69 325.71 156.87 330.99 151.44 334.47 C 143.11 339.94 134.46 344.95 125.55 349.41 C 116.26 351.98 106.18 348.97 98.49 343.50 C 84.58 333.19 70.61 322.90 57.80 311.22 C 55.96 309.16 51.80 307.59 53.03 304.22 C 56.55 289.04 59.34 273.57 59.49 257.95 C 59.83 255.61 58.11 253.85 56.89 252.09 C 50.13 242.88 44.27 232.81 41.10 221.78 C 38.66 211.69 37.65 201.34 35.79 191.14 C 33.86 191.39 32.01 192.00 30.09 192.30 C 26.28 185.17 24.46 177.27 23.63 169.29 C 20.00 163.68 14.35 159.14 12.54 152.42 C 10.70 145.32 8.68 138.23 7.80 130.94 C 6.73 121.65 2.22 113.19 0.73 104.00 C -0.19 97.69 2.98 91.86 5.11 86.14 C 7.24 80.21 11.38 74.92 11.65 68.43 C 11.86 64.27 14.48 60.89 16.20 57.27 C 21.23 47.90 25.42 37.71 33.31 30.28 C 37.94 25.29 45.19 24.51 50.41 20.35 C 54.20 17.88 56.67 13.34 61.34 12.37 C 67.16 10.98 73.05 9.77 79.04 9.52 C 84.03 9.31 88.84 7.90 93.63 6.60 Z" />
</g>
</svg>
